<svg xmlns="http://www.w3.org/2000/svg" width="24" height="24" viewBox="0 0 24 24">
  <symbol fill="none" xmlns="http://www.w3.org/2000/svg" viewBox="0 0 24 24" id="kcm-footer-social-fb">
    <g clip-path="url(#fb)">
      <path d="M12 0c1.656 0 3.219.313 4.688.938a12.196 12.196 0 0 1 3.796 2.578 12.196 12.196 0 0 1 2.578 3.796C23.688 8.783 24 10.345 24 12a11.99 11.99 0 0 1-.797 4.36 11.927 11.927 0 0 1-2.226 3.609 12.24 12.24 0 0 1-3.352 2.625 11.81 11.81 0 0 1-4.125 1.312V15h4.125L18 12h-4.5v-1.5c0-.406.148-.758.445-1.055A1.442 1.442 0 0 1 15 9h3V6h-3c-1.25 0-2.313.438-3.188 1.313-.874.875-1.312 1.937-1.312 3.187V12H8.25v3h2.25v8.906a11.811 11.811 0 0 1-4.125-1.312 12.239 12.239 0 0 1-3.352-2.625 11.928 11.928 0 0 1-2.226-3.61A11.99 11.99 0 0 1 0 12c0-1.656.313-3.219.938-4.688a12.195 12.195 0 0 1 2.578-3.796A12.195 12.195 0 0 1 7.312.937 11.846 11.846 0 0 1 12 0Z" fill="#fff"></path>
    </g>
    <defs>
      <clipPath id="fb">
        <path fill="#fff" transform="matrix(1 0 0 -1 0 24)" d="M0 0h24v24H0z"></path>
      </clipPath>
    </defs>
  </symbol>
  <symbol fill="none" xmlns="http://www.w3.org/2000/svg" viewBox="0 0 24 24" id="kcm-footer-social-in">
    <g clip-path="url(#in)">
      <path d="M12 0c-1.656 0-3.219.313-4.688.938a12.195 12.195 0 0 0-3.796 2.578A12.195 12.195 0 0 0 .937 7.312 11.846 11.846 0 0 0 0 12c0 1.656.313 3.219.938 4.688a12.196 12.196 0 0 0 2.578 3.796 12.196 12.196 0 0 0 3.796 2.578c1.47.625 3.032.938 4.688.938 1.656 0 3.219-.313 4.688-.938a12.197 12.197 0 0 0 3.796-2.578 12.197 12.197 0 0 0 2.578-3.797C23.688 15.22 24 13.658 24 12c0-1.656-.313-3.219-.938-4.688a12.196 12.196 0 0 0-2.578-3.796A12.196 12.196 0 0 0 16.687.937 11.846 11.846 0 0 0 12 0Zm0 2.813h2.46c.392 0 .837.015 1.337.046.5.032.922.079 1.265.141a5.1 5.1 0 0 1 .985.281c.281.125.555.274.82.446.266.171.524.382.774.632s.46.508.632.774c.172.265.32.539.446.82a5.1 5.1 0 0 1 .281.984c.063.344.11.766.14 1.266.032.5.047.945.047 1.336V14.46c0 .392-.015.837-.046 1.337-.032.5-.078.922-.141 1.265a5.1 5.1 0 0 1-.281.985 5.977 5.977 0 0 1-.446.82 4.738 4.738 0 0 1-.632.774c-.25.25-.508.46-.774.632-.265.172-.539.32-.82.446a5.1 5.1 0 0 1-.985.281c-.343.063-.765.11-1.265.14-.5.032-.945.047-1.336.047H9.54c-.392 0-.837-.015-1.337-.046-.5-.032-.922-.078-1.265-.141a5.1 5.1 0 0 1-.985-.281 5.977 5.977 0 0 1-.82-.446 4.737 4.737 0 0 1-.774-.632c-.25-.25-.46-.508-.632-.774a5.98 5.98 0 0 1-.446-.82A5.1 5.1 0 0 1 3 17.062c-.063-.343-.11-.765-.14-1.265-.032-.5-.047-.945-.047-1.336V9.54c0-.392.015-.837.046-1.337.032-.5.079-.922.141-1.265a5.1 5.1 0 0 1 .281-.985 5.98 5.98 0 0 1 .446-.82c.171-.266.382-.524.632-.774s.508-.46.774-.632c.265-.172.539-.32.82-.446A5.1 5.1 0 0 1 6.937 3c.344-.063.766-.11 1.266-.14.5-.032.945-.047 1.336-.047H12Zm0 1.64c-1.219 0-2.023.008-2.414.024-.39.015-.82.023-1.29.023a7.13 7.13 0 0 0-1.1.14 4.613 4.613 0 0 0-.633.188A3.135 3.135 0 0 0 6 5.133c-.156.11-.313.242-.469.398-.156.157-.289.313-.398.469-.11.156-.211.344-.305.563a4.613 4.613 0 0 0-.187.632A7.13 7.13 0 0 0 4.5 8.297c0 .469-.008.898-.023 1.289-.016.39-.024 1.195-.024 2.414s.008 2.023.024 2.414c.015.39.023.82.023 1.29.031.468.078.835.14 1.1.063.266.126.477.188.634.094.218.195.406.305.562.11.156.242.313.398.469.157.156.313.289.469.398.156.11.344.211.563.305.156.062.367.125.632.187.266.063.633.11 1.102.141.469 0 .898.008 1.289.023.39.016 1.195.024 2.414.024s2.023-.008 2.414-.024c.39-.015.82-.023 1.29-.023a7.123 7.123 0 0 0 1.1-.14c.266-.063.477-.126.634-.188.218-.094.406-.195.562-.305.156-.11.313-.242.469-.398.156-.157.289-.313.398-.469.11-.156.211-.344.305-.563.062-.156.125-.367.187-.632.063-.266.11-.633.141-1.102 0-.469.008-.898.023-1.289.016-.39.024-1.195.024-2.414s-.008-2.023-.024-2.414a32.5 32.5 0 0 1-.023-1.29 7.124 7.124 0 0 0-.14-1.1 4.613 4.613 0 0 0-.188-.633A3.136 3.136 0 0 0 18.867 6a3.54 3.54 0 0 0-.398-.469A3.541 3.541 0 0 0 18 5.133a3.135 3.135 0 0 0-.563-.305 4.616 4.616 0 0 0-.632-.187 7.129 7.129 0 0 0-1.102-.141c-.469 0-.898-.008-1.289-.023A76.689 76.689 0 0 0 12 4.453ZM16.922 6c.281 0 .531.11.75.328.219.219.328.469.328.75 0 .313-.11.578-.328.797a1.033 1.033 0 0 1-.75.328c-.313 0-.578-.11-.797-.328a1.085 1.085 0 0 1-.328-.797c0-.281.11-.531.328-.75.219-.219.484-.328.797-.328ZM12 7.266c1.313 0 2.43.46 3.352 1.382.921.922 1.382 2.04 1.382 3.352 0 1.313-.46 2.43-1.382 3.352-.922.921-2.04 1.382-3.352 1.382-1.313 0-2.43-.46-3.352-1.382-.921-.922-1.382-2.04-1.382-3.352 0-1.313.46-2.43 1.382-3.352.922-.921 2.04-1.382 3.352-1.382Zm0 1.687c-.844 0-1.563.297-2.156.89A2.937 2.937 0 0 0 8.954 12c0 .844.296 1.563.89 2.156.594.594 1.312.89 2.156.89.844 0 1.563-.296 2.156-.89.594-.594.89-1.312.89-2.156 0-.844-.296-1.563-.89-2.156A2.937 2.937 0 0 0 12 8.954Z" fill="#fff"></path>
    </g>
    <defs>
      <clipPath id="in">
        <path fill="#fff" transform="matrix(1 0 0 -1 0 24)" d="M0 0h24v24H0z"></path>
      </clipPath>
    </defs>
  </symbol>
  <symbol fill="none" xmlns="http://www.w3.org/2000/svg" viewBox="0 0 24 24" id="kcm-footer-social-li">
    <g clip-path="url(#li)">
      <path d="M11.531.188a11.45 11.45 0 0 0-4.5.89A11.582 11.582 0 0 0 3.398 3.54a11.44 11.44 0 0 0-2.46 3.68 10.955 10.955 0 0 0-.938 4.5c0 1.562.313 3.047.938 4.453a11.44 11.44 0 0 0 2.46 3.68 11.582 11.582 0 0 0 3.633 2.46 11.45 11.45 0 0 0 4.5.891 11.45 11.45 0 0 0 4.5-.89 11.583 11.583 0 0 0 3.633-2.461 11.442 11.442 0 0 0 2.461-3.68c.625-1.406.938-2.89.938-4.453 0-1.594-.313-3.094-.938-4.5a11.441 11.441 0 0 0-2.46-3.68 11.583 11.583 0 0 0-3.634-2.46 11.449 11.449 0 0 0-4.5-.891ZM8.72 16.453H6.375v-7.5h2.344v7.5Zm-1.172-8.39c-.375 0-.672-.118-.89-.352a1.164 1.164 0 0 1-.329-.82c0-.344.11-.625.328-.844.219-.219.516-.328.89-.328.376 0 .673.11.891.328.22.219.329.5.329.844 0 .312-.11.586-.329.82-.218.234-.515.351-.89.351Zm9.703 8.39h-2.344v-4.125c0-.5-.094-.898-.281-1.195-.188-.297-.484-.445-.89-.445-.344 0-.61.093-.797.28-.188.188-.329.391-.422.61a.864.864 0 0 0-.07.258c-.016.11-.024.21-.024.305v4.312h-2.297v-5.11c0-.468-.008-.898-.023-1.288-.016-.39-.04-.758-.07-1.102h2.062l.094 1.078h.046c.157-.25.422-.515.797-.797.375-.28.875-.421 1.5-.421.781 0 1.43.257 1.946.773.515.516.773 1.336.773 2.46v4.407Z" fill="#fff"></path>
    </g>
    <defs>
      <clipPath id="li">
        <path fill="#fff" transform="matrix(1 0 0 -1 0 24)" d="M0 0h24v24H0z"></path>
      </clipPath>
    </defs>
  </symbol>
  <symbol fill="none" xmlns="http://www.w3.org/2000/svg" viewBox="0 0 24 24" id="kcm-footer-social-pi">
    <g clip-path="url(#pi)">
      <path d="M12 0c-1.656 0-3.219.313-4.688.938a12.195 12.195 0 0 0-3.796 2.578A12.195 12.195 0 0 0 .937 7.312 11.846 11.846 0 0 0 0 12c0 1.656.313 3.219.938 4.688a12.196 12.196 0 0 0 2.578 3.796 12.196 12.196 0 0 0 3.796 2.578c1.47.625 3.032.938 4.688.938 1.656 0 3.219-.313 4.688-.938a12.197 12.197 0 0 0 3.796-2.578 12.197 12.197 0 0 0 2.578-3.797C23.688 15.22 24 13.658 24 12c0-1.656-.313-3.219-.938-4.688a12.196 12.196 0 0 0-2.578-3.796A12.196 12.196 0 0 0 16.687.937 11.846 11.846 0 0 0 12 0Zm1.172 16.031c-.563-.031-1-.164-1.313-.398a14.243 14.243 0 0 0-1.078-.727 28.088 28.088 0 0 1-.937 3.469c-.375 1.094-.985 1.953-1.828 2.578-.25-1.875-.157-3.555.28-5.039a45.461 45.461 0 0 0 1.079-4.476c-.5-.844-.516-1.883-.047-3.118.469-1.234 1.25-1.633 2.344-1.195 1.344.531 1.437 1.758.281 3.68-1.156 1.922-.906 3.054.75 3.398 1.75.344 2.914-.672 3.492-3.047.578-2.375.336-4.11-.726-5.203-1.563-1.562-3.438-1.773-5.625-.633-2.188 1.14-3.11 2.836-2.766 5.086.094.563.305 1.008.633 1.336.328.328.273.883-.164 1.664-1-.219-1.68-.695-2.04-1.43-.359-.734-.507-1.632-.444-2.695.062-1.719.71-3.133 1.945-4.242 1.234-1.11 2.601-1.758 4.101-1.945 1.875-.188 3.579.148 5.11 1.008 1.531.859 2.422 2.164 2.672 3.914.28 2-.102 3.875-1.149 5.625s-2.57 2.546-4.57 2.39Z" fill="#fff"></path>
    </g>
    <defs>
      <clipPath id="pi">
        <path fill="#fff" transform="matrix(1 0 0 -1 0 24)" d="M0 0h24v24H0z"></path>
      </clipPath>
    </defs>
  </symbol>
  <symbol fill="none" xmlns="http://www.w3.org/2000/svg" viewBox="0 0 24 24" id="kcm-footer-social-x">
    <rect width="24" height="24" rx="12" transform="matrix(1 0 0 -1 0 24)" fill="#fff"></rect>
    <path fill-rule="evenodd" clip-rule="evenodd" d="M17.809 4.2h1.38l-5.764 6.247 6.54 8.753H15.18l-4.398-5.887-5.43 5.887H3.93l6.224-6.727L3.973 4.2h4.784l4.044 5.412L17.809 4.2ZM8.247 5.234H6.042l9.691 12.931h2.205L8.247 5.235Z" fill="#212529"></path>
  </symbol>
  <symbol fill="none" xmlns="http://www.w3.org/2000/svg" viewBox="0 0 24 24" id="kcm-footer-social-yt">
    <g clip-path="url(#ty)">
      <path d="M24 12c0 1.656-.313 3.219-.938 4.688a12.197 12.197 0 0 1-2.578 3.796 12.197 12.197 0 0 1-3.797 2.578A11.846 11.846 0 0 1 12 24c-1.656 0-3.219-.313-4.688-.938a12.196 12.196 0 0 1-3.796-2.578 12.196 12.196 0 0 1-2.579-3.797A11.846 11.846 0 0 1 0 12c0-1.656.313-3.219.938-4.688a12.195 12.195 0 0 1 2.578-3.796A12.195 12.195 0 0 1 7.312.937 11.846 11.846 0 0 1 12 0c1.656 0 3.219.313 4.688.938a12.196 12.196 0 0 1 3.796 2.578 12.196 12.196 0 0 1 2.578 3.796C23.688 8.783 24 10.345 24 12ZM4.078 14.39c0 .844.32 1.555.961 2.133.64.579 1.414.868 2.32.868h9.282c.906 0 1.68-.29 2.32-.868.64-.578.96-1.289.96-2.132V9.28c0-.844-.32-1.562-.96-2.156-.64-.594-1.414-.89-2.32-.89H7.359c-.906 0-1.68.296-2.32.89-.64.594-.96 1.313-.96 2.156v5.11Zm6.234-4.921v4.594l4.266-2.391-4.265-2.203Z" fill="#fff"></path>
    </g>
    <defs>
      <clipPath id="ty">
        <path fill="#fff" transform="matrix(1 0 0 -1 0 24)" d="M0 0h24v24H0z"></path>
      </clipPath>
    </defs>
  </symbol>
  <symbol class="" viewBox="0 0 16 16" id="svg-asterix" xmlns="http://www.w3.org/2000/svg">
    <path class="test" d="M8 0a1 1 0 0 1 1 1v5.268l4.562-2.634a1 1 0 1 1 1 1.732L10 8l4.562 2.634a1 1 0 1 1-1 1.732L9 9.732V15a1 1 0 1 1-2 0V9.732l-4.562 2.634a1 1 0 1 1-1-1.732L6 8 1.438 5.366a1 1 0 0 1 1-1.732L7 6.268V1a1 1 0 0 1 1-1" />
  </symbol>
</svg>