<svg xmlns="http://www.w3.org/2000/svg" fill="none" viewBox="0 0 306 57"><g fill="#000" clip-path="url(#a)"><path d="M40.735 57C18.277 57 0 44.215 0 28.5S18.277 0 40.735 0 81.47 12.785 81.47 28.5 63.193 57 40.735 57Zm0-56.17C18.742.83.836 13.247.836 28.5c0 15.254 17.906 27.67 39.922 27.67 22.017 0 39.922-12.416 39.922-27.67C80.68 13.246 62.751.83 40.735.83Z"/><path d="M40.735 56.954c-14.33 0-27.08-8.447-31.004-20.516-.023-.069 0-.161.093-.184.07-.023.162 0 .186.092C13.888 48.3 26.522 56.654 40.712 56.654c14.19 0 26.824-8.354 30.702-20.285.023-.07.116-.115.186-.092.07.023.116.115.093.184-3.925 12.07-16.675 20.493-31.004 20.493h.046Zm31.492-33.531s-.14-.046-.14-.115C69.184 10.2 55.993.669 40.735.669s-28.403 9.508-31.33 22.592c0 .093-.092.139-.185.116-.093 0-.14-.092-.116-.185C12.053 9.97 25.36.37 40.734.37 56.11.37 69.44 9.992 72.39 23.24c0 .092-.023.16-.116.184h-.046Z"/><path d="M40.734 56.954c-8.059 0-15.235-8.446-17.441-20.539 0-.092.046-.161.116-.184.07 0 .163.046.186.115 2.183 11.93 9.22 20.285 17.116 20.285 7.896 0 14.956-8.331 17.116-20.285 0-.092.093-.138.186-.115.093 0 .14.092.116.184-2.206 12.093-9.36 20.516-17.441 20.516l.046.023ZM23.085 23.446c-.093 0-.14-.092-.14-.162C24.571 10.016 32.05.37 40.735.37s16.164 9.646 17.79 22.916c0 .092-.047.161-.14.161-.093 0-.162-.046-.162-.138C56.597 10.177 49.258.669 40.735.669S24.873 10.2 23.247 23.308c0 .069-.07.138-.162.138Z"/><path d="M40.735 56.954s-.163-.07-.163-.162v-20.4s.07-.161.163-.161.162.069.162.161v20.4s-.07.162-.162.162Zm0-33.416s-.163-.069-.163-.161V.53s.07-.162.163-.162.162.07.162.162V23.4s-.07.161-.162.161v-.023Z"/><path d="M66.468 50.516H15.096s-.162-.07-.162-.162.07-.162.162-.162h51.372s.162.07.162.162-.07.162-.162.162Zm9.707-8.562H5.11s-.163-.07-.163-.162.07-.161.163-.161h71.065s.163.07.163.161c0 .093-.07.162-.163.162Zm0-25.362H4.389s-.162-.069-.162-.161c0-.093.07-.162.162-.162h71.786s.162.07.162.162-.07.161-.162.161ZM66.653 7.43H15.21s-.162-.068-.162-.16c0-.093.07-.162.162-.162h51.442s.162.069.162.161c0 .093-.07.162-.162.162Zm-47.47-1.476v-.092c.07-.162.233-.346.465-.37.186 0 .371.093.232.231-.046.046-.093.116-.14.162-.185 0-.394.046-.58.069h.023Zm10.265-4.2c-.116.185-.024.67.07.854.116.277-.326.3-.442.507-.093.208-.046.3.14.439.185.161.023.461.208.67.14.138.511.415.233.6-.233.115-.767.276-1.022.16-.232-.115-.65.278-.767 0-.092-.207-.394-.069-.487-.23-.116-.185-.488-.115-.627-.3-.116-.162-.349.092-.465-.046-.116-.208.116-.37.21-.554.046-.115-.21-.162-.163-.323.046-.208-.697.092-.697-.046.023-.093.418-.277.209-.323-.232 0-.534.415-.674.323-.116-.116 0-.254 0-.393 0-.184-.209-.023-.348-.069-.232-.092 2.555-1.061 4.598-1.27h.024Zm-8.593 2.631c.209 0-.302.807-.07.738.418-.208.186-.761.743-.9.465-.07-.139.485-.116.462.14-.023.14-.162.256-.185.093 0 0 .162.14.092.115-.069.115-.207.255-.254.139-.046.44-.069.348.116-.07.138.14-.023.209-.046.116 0 .116.092.209.115.116 0 .209-.07.325-.092.116 0 .256-.046.302.069 0 .115-.14.37.07.392.395.046.766.116 1.16.116.372 0 .117.623-.208.53-.186-.069-.418-.23-.627-.138-.348.277.488.623.743.623.464 0 0 .3-.256.3-.185 0-.418-.092-.58 0-.093.07.697.208.534.3a1.418 1.418 0 0 1-.975.07c-.279-.093-.511-.255-.813-.208-.232.046-.534.392-.767.3-.255-.139.024-.37.21-.416.278-.092.487-.207.603-.438.163-.3.349-.6-.209-.623-.302 0-.395-.3-.557-.3-.348.023-.65.3-1.045.323-.279.023-.534-.162-.58-.37 0-.207.417-.6.673-.623l.023.047Z"/><path d="M20.552 7.246c-.232.023-.279.37-.488.439-.116.023-.046-.162-.186-.116-.209.046.116-.369.14-.438.023-.046.232-.346.255-.277.07.115.511.07.627.092.232.07.256.23.07.346-.232.162-.256-.046-.441-.069l.023.023Zm.164.324c.093.115-.418.46-.511.346-.047-.139.371-.462.51-.347ZM19.02 5.7v-.092c.069-.162.255-.346.464-.37.186 0 .371.093.232.231-.046.046-.093.116-.14.162-.185 0-.394.046-.58.07h.023Zm1.671-.161c.14-.047.488-.185.604-.07-.209 0-.418.047-.604.07Z"/><path d="M9.08 23.285c-.186-.162-.046-.508-.232-.716-.186-.23-.325-.461-.511-.692-.093-.138.232-.184.186-.37-.117-.276-.28-.53-.349-.807-.07-.3-.116-.577-.14-.877 0-.184.094-.484-.115-.623-.163-.092-.302-.207-.465-.277-.186-.092 0-.369-.07-.507-.092-.208 0-.416-.07-.623 0-.047 0-.485.047-.324.07.139.07.07.07-.046 0-.069 0-.138.07-.161.162-.093.093-.208-.07-.093-.07.07-.14.277-.163.116-.023-.323 0-.692.07-1.016.07-.23.418-.461.441-.692 0-.161.093-.323.21-.461.185-.254.325-.531.534-.785.232-.277.116-.808.44-1.015.117-.047.14.138.21.161.116.07-.07.277-.116.346-.093.139.186-.046.232-.069.14-.138.348-.415.302-.6-.07-.162-.093-.346-.14-.508-.023-.115.14-.207.117-.3 0-.023-.163.116-.186-.023-.047-.138-.116-.323-.023-.461.093-.116.255-.162.348-.277.023-.046-.279.069-.232-.07.07-.115.232-.553.162-.692-.07-.138 6.155-4.292 6.085-4.177-.046.162.255.093.348.07.07 0 .488-.185.488-.07 0 .093.163.116.116.254-.07.185.21-.115.233-.161.07-.116.209-.185.325-.3.116-.093.232 0 .325.046.162.115.278.277.487.115.093-.069.511-.369.488-.115-.023.184-.116.392.14.161.139-.138.185-.323.325-.438.093-.092.278-.185.185-.3-.092-.092-.278-.116-.209-.277.07-.162.256-.346.465-.37.186 0 .372.093.232.231-.07.07-.302.3-.093.347.163.046-.186.277 0 .3.232 0 .21-.323.418-.323.186.023-.14.507.116.484.21-.046.21-.184.256-.3.046-.115.209-.138.278-.23.047-.07-.139-.162-.023-.208.14-.046.58-.231.65-.023 0 .161-.162.161-.232.277-.046.115.093.23 0 .369-.093.138-.232.346-.464.369-.14 0-.047-.162-.186-.115-.163.069.07.184 0 .253-.116.07-.302-.138-.441 0-.07.093.093.162 0 .231-.14.116-.418-.046-.558.116-.092.138.349.046.419.069.116.07-.21.37-.302.415-.14.046-.256 0-.395.07-.163.092-.07.276-.279.392-.464.277-.952.738-1.138 1.2-.046.138-.209.323 0 .392.255.092.186.277.116.439-.093.277.21.092.372.046s.325.115.51.115c.21 0 .303.092.442.185.209.138.441.069.697.046.348 0 .487.023.371.323-.023.07-.232.485-.023.392.21-.115.348-.184.255.046-.07.208 0 .116.117.208.116.139-.14.3-.047.462.116.138.349-.139.418-.231.186-.23.418-.762.163-.992-.279-.208-.047-.439.162-.624.302-.276.418-.576.256-.923-.116-.23-.163-.415.046-.623.163-.161.14-.254 0-.415-.162-.208-.185-.392.047-.577a.782.782 0 0 1 .557-.138c.186 0 .325-.231.488-.139.14.092.209.185.418.185.255 0 .65-.116.441.184-.14.208.232.162.116.3-.046.046-.325.346-.186.37.163 0 .14-.347.372-.347.14 0 .163.139.302.116.162-.023.14-.208.279-.3.139-.07.232-.139.162-.277-.07-.139 0-.254.14-.346.185-.116.301.115.371.207.163.208.558.185.697.393.046.115-.047.254.07.346.162.138.371.092.58.07.093 0 .72-.093.674 0-.093.138-.744.553-.604.691.162.07.418-.577.627-.623.186-.023.371-.046.534.046.186.093.325.347.209.508-.163.162-.395.23-.557.392-.163.185-.047.462-.302.6-.372.185-.697.37-1.092.508-.395.116-.929.3-1.115.623-.07.139-.255.185-.348.323a3.971 3.971 0 0 0-.302.531c-.186.323-.488.692-.836.923.279-.184.534-.37.767-.6.185-.184.255-.438.464-.6.209-.184.441-.369.697-.53.116-.07.627-.093.487.092-.116.138-.348.161-.487.3.116.115.232-.046.371-.046.116.023.047.161.047.23 0 .116.209.07.255.162.116.161.163.323 0 .484-.162.139-.441.185-.58.347-.07.115-.07.207-.07.323 0 .161-.256.23-.395.323-.14.092-.116.254-.232.323-.163.092-.302.07-.395.23-.023.07-.186.6.046.555.07-.024.233-.208.302-.162.07.092.024.277-.093.346a1.94 1.94 0 0 1-.487.139c-.21.069-.349.207-.558.3-.278.115-.371.415-.371.646 0 .138.046.346-.116.438-.14.07-.07.208-.07.323 0 .185-.163.37-.232.531-.047.115-.163-.323-.186-.392-.14-.185-.186.161-.186.254 0 .161.047.253.21.323.115.046.278.092.231.23-.023.093.07.162.047.254-.07.116-.302.07-.372.185 0 .115.279.046.163.208-.116.138-.372.184-.441.323-.047.138-.186.207-.326.3-.255.184-.278.461-.487.646-.163.115-.349.115-.465.3-.116.207-.232.438-.186.669.117.392.372.739.581 1.108.116.23.58 1.246.047 1.338-.442 0-.697-.646-.953-.9-.232-.23-.093-.369-.116-.623-.046-.184-.209-.046-.302-.161-.046-.07-.116-.3-.255-.3-.116 0-.047.207-.186.253-.14.047-.232.231-.371.208-.163-.046 0-.346-.233-.323-.185 0-.371-.07-.534-.046-.116.023-.209.161-.348.138-.186-.046-.372-.046-.558-.046-.185.023.163.208.14.3-.047.093-.279.046-.256.162 0 .115-.07.207-.209.207-.093 0-.232.047-.302 0-.07-.069-.139-.276-.278-.253-.093 0-.047.161-.186.161-.163 0-.349-.161-.488-.115-.116.046-.162.138-.255.207-.116.07-.163-.092-.279-.046-.14.07 0 .3-.232.393-.232.092-.534.207-.674.392-.093.138-.07.277 0 .438.047.162.163.277.093.439-.093.138-.232.254-.255.438l-5.156-.138ZM28.147 8.77c.21-.07.047.207 0 .276-.093.208-.162.392.186.277.186-.046.465-.23.65-.162.14.07.047.324.279.185.162-.092.209-.07.348.046.116.093.349.116.21.277-.094.092-.535.554-.628.254-.046-.138-.14 0-.162.07-.07.115-.116.438-.349.392-.162-.047.186-.277.163-.393-.047-.138-.348.116-.441.139-.186.092-.697.554-.906.438-.14-.115.186-.23.186-.346-.023-.138-.325.092-.395 0-.023-.115.464-.185.488-.37 0-.184-.116-.368-.093-.553a.731.731 0 0 1 .487-.554l-.023.023Z"/><path d="M22.131 21.346s.116 0 .186.023c.14 0 .279-.092.441-.069.116.046.116.162.14.23 0 .07-.047.116-.117.14-.046 0-.07-.024-.093-.07v-.07c0-.022 0-.068-.046-.091-.023-.047-.093-.047-.14-.023-.07.023-.092.092-.162.115-.14.046-.279.046-.372-.046-.046-.046 0-.093.047-.139.046-.023.116-.023.162-.046h-.046v.046Zm1.069.439c.115.069.255.138.348.23.046.047.162 0 .232.047.07.069.116.138.07.23 0-.023-.07-.023-.093-.023H23.5c-.209-.046-.325-.207-.464-.3-.07-.069 0-.161.07-.207.046 0 .092 0 .116.023h-.024Zm-.487.761c-.163 0-.349-.069-.418-.207-.024-.07.07-.093.093-.139.07-.07.209-.092.278 0 .093.092.047.23.047.346Zm1.415.139s-.046.115-.116.092c-.139-.046-.255-.185-.209-.3.024-.092.186-.046.256 0s.07.138.093.208h-.024ZM9.01 12.139c.163-.139.28.207.326.3.07.161.302.6.093.761-.186.07-.279-.392-.325-.485-.093-.161-.256-.392-.093-.576Zm11.914-2.493c.116.023.162.139.093.231-.047.07-.28.277-.395.185-.116-.139.186-.37.302-.416.046 0 .023-.023 0 0Zm4.9 2.815c.07-.138.464-.207.488-.253 0-.093-.163-.07-.14-.208.07-.23.627-.346.883-.346.14 0-.348.508-.418.577-.14.138-.372.184-.418.392-.07.23-.279.439-.58.415-.14-.023.139-.484.185-.553v-.024Zm1.556-1.5s-.209.439-.092.324c.116-.139.348-.208.232 0-.093.161-.21.369-.442.23-.232-.138-.023-.415.07-.577.047-.092.279-.138.232 0v.023Zm-.718.209s.348-.393.185-.37c-.232.023-.255.23-.186.37Zm.208.207c.07.161-.186.23-.348.254-.163 0-.372 0-.441-.139-.047-.138.278-.138.371-.092.116.07.325-.162.418 0v-.023Zm-.256-.992c-.046.184-.302.207-.487.184-.163 0-.325-.092-.465 0 .07-.138.14-.3.349-.3.139 0 .627-.115.603.093v.023ZM14.213 36.438c.441.739 1.115 1.362 1.695 1.985.256.277.372.67.674.923.51.439 1.138.83 1.765 1.062.302.092.627.253.813.53.348.554.696 1.062.836 1.708.046.208.278.323.302.53.046.255.209.485.278.74.07.184.07.392.116.576.07.185.372.531.302.739-.046.138.349.392.418.53.117.231.465.716.372.97-.07.115.023.207.046.3 0 .184-.046.254.117.415.209.208.603.485.603.808 0 .138.233.461.395.346.07-.07.302-.07.279.092 0 .093.046.162.07.254.046.115.046.23.162.277.07.023.418.185.372.254-.047.046-.186-.046-.21 0 0 .092.303.115.233.254-.07.115-.163 0-.256-.047-.139-.069-.116.07-.092.185 0 .115.185.046.278.07.093 0 .14.115.232.138.093.023.488.254.233.184-.14-.046-.233-.069-.07.07.093.069-.163 0-.07.092a.847.847 0 0 0 .395.161c.116 0 .14.139.232.208.047.046.325.185.256.254-.07.07.07.23.162.185.093-.07.21 0 .256.092.07.092.186.046.302.07.07 0 0 .091.116.138.07.023.209-.07.209-.047.116.116.232-.138.348-.161.163 0-.023-.115-.093-.139-.093-.069-.255-.161-.232-.3v-.23c0-.162.349-.37.093-.462-.255-.092-.697-.138-.766-.461-.024-.231.371-.023.325-.231-.047-.162.093-.277-.047-.416-.139-.138-.278-.253-.44-.392-.187-.184.069-.184.208-.092.14.092.349.184.488.07.186-.14.093-.3-.047-.416-.209-.162-.185-.3.07-.162.186.093.348 0 .534.046.14 0 .511.162.58-.046.07-.207.28-.346 0-.53-.162-.116-.185-.3-.324-.416-.21-.138-.535-.208-.558-.508.186.116.349.254.558.254.162 0 .325.139.487.185.163.023.627.208.72 0 .047-.139.21-.093.302-.185.093-.115.093-.23.047-.369-.07-.162.023-.208.139-.3.163-.115.372-.07.51-.254.163-.23.256-.508.35-.761.092-.3-.442-.577-.21-.831.21-.208.418-.277.697-.323.232-.046.488 0 .697-.139.232-.161.51-.207.79-.161.301.046.673-.07.835-.346.233-.485.325-1.039.674-1.454.302-.393.163-.831 0-1.223-.047-.139-.256-.808.023-.808.186 0 .047.346.163.346.232 0 .395-.461.441-.623.186-.438.952-.37 1.091-.854a3.282 3.282 0 0 0-.07-1.5c-.162-.484-.65-.669-.998-.877H14.213v.023Zm13.842 15.554s-.535-.07-.465-.138c.047-.047.232-.07.14-.139-.047-.023-.256 0-.21-.069.07-.092.163-.115.279-.046.21.138.465.23.72.277.116.023.302.046.372.138.046.07-.72 0-.836 0v-.023Zm1.833-.577c.116-.069.302 0 .395.093.093.092-.232.046-.279.046-.07 0-.139.069-.232.046-.093 0-.441 0-.395-.116 0-.046.07-.092.093-.138.047-.138.325.115.418.07Zm-2.624.393s-.255-.254-.371-.185c0 .092.394.277.371.185Zm.767.276s.21 0 .256.024c.046.092-.21 0-.256-.023Zm29.193-14.007s0-.139.023-.208c.116-.138.325-.23.255-.438h.116a1.22 1.22 0 0 1 .442-.254c0 .023 0 .07.023.07.14 0 .232.16.372.16 0-.069-.07-.138 0-.207.07-.092.093-.254.209-.3.162-.07.278-.277.44-.346.14-.07.883-.046.883-.046-.116.23.07.507-.162.669-.186.092-.302-.139-.372-.254-.093.092-.046.23 0 .323.07.115.163.3.07.415-.511.554-.418 1.339-.697 1.985a24.1 24.1 0 0 1-.906 1.73c-.162.3-.487.6-.859.485-.186-.069-.302-.276-.395-.438-.185-.415-.116-.9.093-1.292.21-.346.906-.6.72-1.108-.162-.346-.302-.67-.209-1.062v.139l-.046-.023ZM46.123 10.892c0 .162.047.323 0 .462-.07.161-.278.138-.418.161 0-.069-.116-.092-.093-.161.14-.3-.046-.646.163-.923.163-.162.488-.092.557.138.024.139-.162.185-.162.3l-.047.023Zm.21-.6s-.07-.092-.14-.092c0-.115.14-.277.256-.185.116.093-.047.231-.14.277h.024Zm1.741 1.638c-.023.208.023.44-.256.416 0-.046-.093 0-.093-.092-.209 0-.394-.046-.534-.185-.023-.046-.023-.115 0-.138.232-.07.488.115.674-.046.046-.047.093 0 .116.023h.07l.023.023Zm2.555 1.131s-.047-.138 0-.092c.232.092.464.162.696.208.047 0 0 .115 0 .115-.279.116-.557-.046-.743-.277l.047.046Zm3.739.139c-.046.23-.302.162-.464.254-.116.069-.256.069-.395.115 0-.046-.047-.161 0-.184.209-.116.464-.162.72-.185h.14Zm4.087 2.608c.07.115.163.3.325.23.023 0 0-.115 0-.138.116 0 .233.023.325-.046-.209 0-.418-.023-.627-.046h-.023Zm-3.786 20.446c-.047.162 1.602.092 1.51.554-.047.184-.094.438-.256.577-.558.415-1.185.669-1.556 1.269-.116.161-.325.277-.511.23 0 .208-.418.647-.256.808.302.254.302.647.233 1.016-.14.623-.813.784-1.138 1.269-.186.346 0 .785-.233 1.13-.371.532-.905.947-1.3 1.478-.163.23-.395.392-.557.623-.349.461-.883.808-1.487.761-.232-.046-.464-.23-.72-.115-.441.208-.906.577-1.417.462-.232-.07-.162-.508-.232-.693-.14-.323.349-.577.186-.9-.325-.53-.65-1.084-.952-1.638-.302-.6-.116-1.246-.14-1.893.28-.346.163-.807-.139-1.107-.813-.993-1.277-2.331-.697-3.554.186-.346 9.685-.392 9.638-.254l.024-.023Zm22.575-14.308c-.14.046-.302.208-.418 0-.116-.277.139-.415.395-.323.092.046.116.254 0 .3l.023.023ZM44.358 5.215s.07.231 0 .346c-.046.047-.046.093-.046.139-.023.392-.372.6-.697.785-.07.046-.07.138-.14.184-.255.116-.696.092-.835-.184-.093-.277.44-.208.58-.254v-.093a.454.454 0 0 1-.209-.207c-.093-.208.116-.277.256-.37.162-.092.394.093.534-.046.116-.161.302-.323.534-.277 0 0 .047-.046.07 0l-.047-.023ZM79.24 36.438s-2.438-.092-2.508 0c-.232.231-.557.347-.79.6-.139.139-.301 0-.464.116-.07.046-.023.161-.093.23-.093.07-.232.024-.278.14-.047.068-.07.276-.163.3-.07 0 0-.232-.116-.232 0 .116-.093.277-.047.393.047.069.163.115.093.207-.209.231-.162.508-.023.762 0 .023.023.046.047.07.07.091.209.091.162.253 0 .046-.093-.046-.116 0v.023c0 .046.046.139 0 .162-.14.046-.186-.116-.255-.208 0-.023-.07 0-.093 0 .093.115.209.208.255.37.047.184-.046.368 0 .553a.905.905 0 0 0 .116.323c.093.185-.093.392 0 .577 0 .023.07 0 .093 0 0 .046.093.023.093.07.023.068.07.138.07.207 0 .161-.047.346-.093.485-.023.069-.14 0-.186.092a1.046 1.046 0 0 0-.116.53c.023.254.232.278.418.416.023 0 3.855-4.708 4.018-6.415l-.023-.024Zm.86-2.884s0 .07-.024.138v-.115l.023-.023Zm-4.203 2.931c-.21.253-.023 0-.186.276-.116.208-.348 0-.395-.161-.14-.462.604-.162.58-.115ZM34.256 56.239c-.464-.254-.557-.185.093-.416.256-.092-.162-.138-.302-.208-.162-.115.093-.276.14-.392.348 0 .116.23.371.23.302 0 .395-.23.511-.3.186-.091.65-.045.93-.114.185-.07.069-.185.301-.231.465-.093 1.045 0 1.486-.093.767-.23 1.789-.369 2.578-.577.256-.092.534-.346.999-.323h.302c-.163-.023 0-.092-.023-.138-.07-.046-.256-.046-.302-.092-.14-.116-.14-.323.209-.416.395-.092.859.116 1.184 0 .186-.092-.371-.207-.255-.323.046-.023.209 0 .255 0 .14.046.302.07.511.046-.023-.092-.255-.184-.163-.277.047-.046.186.047.233.07.116 0 .255-.023.371 0 0-.047.023-.093.047-.139-.093 0-.116 0-.14-.046 0-.023-.023-.07.024-.092h.278c.07-.07 0-.162.047-.231 0 0-.047-.046-.116-.046 0-.046 0-.07.046-.116h.14c-.047-.046.139-.046.092-.069.14 0 .279-.023.349.023 0-.023-.023-.092.046-.092.116-.023.279 0 .441 0-.023-.046.093-.07.093-.115.65.207.79.484.511.761.325 0 .279-.161.441-.208a1.57 1.57 0 0 1 .813.047c.093.046-.139.115-.093.161h.186c.116-.23.21-.485.14-.738h.209c-.233-.07-.07-.185-.07-.254h.209c.046-.023 0-.093.046-.116.233-.046.511 0 .767-.023 0-.046.162-.092.093-.138-.163-.092-.395-.115-.743-.115-.21 0-.28-.139-.163-.185 1.091-.185 1.95.23 2.81.37.348.045.58-.185.883-.093.093.046-.07.115 0 .161.023 0 .116.116.209.07.093-.07 0-.139.093-.208.092-.046.278 0 .348.023.116.092-.023.208-.14.3-.139.092-.394.023-.65.046.163.139-.14.277-.209.392-.046.116.279.185.325.277 0 .116.117.208.093.323.441-.023.674.139.999.185h.255c.372.092.767.554 1.278.3.139-.07.185-.162.302-.254.232-.184.44-.346.65-.53.232-.231-.093-.485.093-.739.07-.092.07-.162.186-.254.162-.092.51-.115.394-.254-.116-.138-.162-.254-.046-.392a.567.567 0 0 1 .279 0c.185.092.139.462.673.438-.046.139-.441.231-.372.347.024.046.117.092.186.115.186.115 0 .277-.023.415.302-.023.58 0 .743.07.279.161.093.369.14.553.046.208-.326.416-.186.623.046.047.116.162.348.139-.093.161-.186.346-.093.508.14.207-.697.53-.72.623-11.45 2.792-16.744 1.915-21.877 1.73h-.093ZM45.611 4.408s.047.023.07.047V4.43h-.07v-.023Z"/><path d="M45.123.392c.349.046-5.109 0-4.528.046.046.023-2.114.323-2.183.37-.024.046-.07.092 0 .115h.487c.047.07-.046.185-.046.277 0 .07-.186.046-.232.046 0 .046-.047.092 0 .139.07.023.162 0 .232 0-.047.023.186.046.116.092.232 0 .441 0 .65-.07 0 .047-.046.116 0 .14.256.022.534 0 .79 0-.047.068.116.114.14.138.278-.07 1.81-.462 1.253-1.016.279 0 .465.162.72.23.511.07 1.022.047 1.51-.091.14-.07-.186-.139-.14-.208.117-.023.256-.046.372 0 .163.277.279.6.116.923h.418c-.232.046-.186.138-.186.37.14 0 .256-.024.395 0 .07.045 0 .16.093.184.511.07 1.045.023 1.556.023.023.046.279.138.186.23-.488.208-.999.185-1.51.185-.116 0-.65.208-.325.3 1.951.208 3.832-.323 5.76-.554.604 0 1.161.3 1.765.208.116-.07-.14-.161-.047-.23.117-.07.233-.14.372-.093.093.07.14.185.209.277h-.372c-.093.046-.162.115-.255.162-.186.092-.488 0-.58.207l-.047.046c-.14.047-.302-.023-.465-.023-.232 0-.116.3-.302.393-.046 0-.092 0-.116.046-.046.046-.093.069-.139.115-.07.116-.279.023-.371 0-.21-.092-.233 0-.163.208.14.23-.279.07-.395.023-.093.07-.14.23-.279.23-.162 0-.603-.16-.673.07-.023.161 0 .346-.232.392-.233.046-.442.185-.279.439 0 .023.046.046.07.069.232 0 .487.046.72.07.116 0 .185-.162.278-.232.116 0 .395-.046.279.139-.023.046-.046.07-.07.115-.07.208 0 .439.14.623.046 0 .093.046.116.07-.186.046-.441.138-.534.23-.256.254-.28-.069-.395-.138.116-.046.186-.116.07-.277-.163-.162-.395-.092-.581-.023-.256.092-.395.3-.488.508-.604 0-1.23-.139-1.811-.254a.69.69 0 0 0-.465.3c-.046-.139-.186-.254-.255-.37-.186-.392.302-.461.58-.53.07-.023 0-.231 0-.3h-.116c-.023 0-.046.046-.023.069-.093 0-.163 0-.232-.092-.047-.047-.047-.139-.07-.208-.209-.046-.488-.046-.488.23-.046 0-.116 0-.139.024-.07.207.093.415.163.577 0 .092-.163.069-.21.138 0 .046 0 .092.047.092-.023 0-.046 0-.07.024.07.092.349.438.14.507-.186.046-.465-.069-.604.116-.07.115 0 .23.046.346 0 .069-.116.046-.139.046-.093.023-.209-.023-.302 0-.116.046-.093.161-.14.254a.393.393 0 0 0-.139.138c-.162.046-.371 0-.51.093-.117.092.023.207.139.253h.07c0 .093.092.254.232.462h-.279c-.093.115 0 .3 0 .438.14 0 .325.093.163.231.07.07.278.23.185.346-.07.07-.162.023-.232.093-.116.184-.046.623-.418.646-.209.138-.348-.023-.58-.093-.117 0-.627-.115-.744-.115-.418 0-.464.07-.882.046-.465.139-.488.67-.465 1.062-.348.207-.65.438-.905.738-.07.07.07.185.116.254.14.208-.21.37-.093.577.186.254.534.092.79.115 0 .116 0 .254.092.347.047.046.163.046.233 0 .07-.07.139-.139.255-.162.325-.046.65 0 .976 0 .023-.277.325-.162.51-.208-.162-.115-.162-.161-.116-.346.116-.138.325-.046.488-.07-.047 0-.116-.091-.047-.138.21-.115.163-.323.163-.53 0-.116.14-.139.232-.162.14-.046 0-.3.163-.37.163-.045.348-.115.51-.115.187 0 .488.07.605-.092.139-.23.116-.6.464-.646.302-.023.558.23.836.277.14-.162.256-.254.418-.277.558.462 1.138.992 1.696 1.27v.092c.07 0 .116.069.162.069.116 0 .232.046.325.115.14.116.163.3.047.439-.093.092-.302.092-.302.277 0 .069.116.069.14.115.162-.046.348-.139.417-.3.047-.092.349-.046.279-.185-.093-.161-.07-.323-.116-.484.07 0 .14 0 .209.046.65.761.07-1.27 1.3-1.13.442 1.73 3.391 1.038 4.413 2.03.441.277-2.764 1.13-3.344 1.546-.442.577-.744.762-1.254 1.085-.72-.139-1.974-.231-2.23-.993-.186-.115-.325-.115-.464-.115 0-.139 0-.277.023-.346a4.666 4.666 0 0 1-1.115-.254c0-.07-.046-.115 0-.185.093-.115.464-.346.255-.507-.325-.231-.766-.116-1.114.046-.279.115-.65-.07-.952-.046-.604.046-1.208.023-1.766.23-.394.139-.905.185-1.207.508-.07.07-.232-.115-.325-.115-.21 0-.65-.346-.79-.231-.673.6-1.695.761-2.183 1.592-.093.208-.093.508-.279.646-.209.139-1.579.716-1.277 1.016-.371.092-.604.415-.929.577-.255.115-.673.346-.488.692-.162.208-.44.162-.65.3-.325.23-.418.646-.65.946-.116.139-.325.208-.349.393 0 .23.418.346.256.6-.256.346-.604.923-.348 1.361a.425.425 0 0 1 .046.162h.441c-.255 1.015-.371 2.03-.232 2.607-.07-.069 24.571.231 24.827-.323.255-.115.534-.23.743-.415.093-.093.185-.162.14-.3.255.046.417-.116.603-.254.14 0 .255.046.348.092.325-.554 1.045-.692 1.231-1.177a.698.698 0 0 1 .232-.046.661.661 0 0 1 .024-.3v-.023c.07.023.139-.023.162-.092.023-.046 0-.116 0-.162.093-.138.14-.277.186-.415.14-.277.279-.6.163-.923-.047-.093-.28.046-.372-.046-.07-.07 0-.208-.07-.277-.395-.323-.929-.554-.975-1.131h-.14c.07.277 0 .462-.209.577l-.116-.116c-.139-.138-.139-.276.047-.461-.488-.254-1.208-.692-.813-1.385-.232-.161-.232-.438-.534-.438 0-.139 1.672.946 1.672.738 1.161-.254.116.323 1.254.323.279.139.813-.484 1.115-.346.441.139 1.161-.138 1.58 0 .58.277.138.854.301.762.999.53-1.51.23-.627.508 0 .138 1.324 1.684 1.347 1.892-.023.07.371.3.325.415 0 .692.511 1.177.976 1.708h-.256c0 .07.023.161.046.23.024.093.117.116.163.185.557 1.131 2.555.554 2.555.554.07-.07.116-.738.139-.83h-.093v-.14c.14.14.279.14.349.44-.07-1.154.07-2.008.51-2.885.28-.577.86-.716 1.394-.323-.047 0 .395.346.487.692.21.6-.092.6.21 1.177 0 .138.696 1.084.72 1.27.998.091-1.138.9 2.972.784 1.533.115.558-.716 1.069-1.039l-.024-.023c-.464-.369-.464-.946-.371-1.408 1.068-1.084 1.184-1.361.627-2.792 0 0-6.178-10.615-19.903-14.7-1.162-.138-1.858-.646-2.996-.784 0 .069.023.138.046.207-.046-.046-.093-.115-.162-.207-.186-.208-.372-.231-.65-.208-.14.023-.326 0-.488 0-.116-.092-.279-.162-.325-.185-.395-.184-.837-.092-1.255-.115.21-.23-.696-.323-.812-.415C51.069 1.2 44.96.369 44.96.369l.162.023Zm-.673 6.9s0-.092-.023-.115h.023v.115Zm1.277-1.107v.092-.092Zm-.07.992s-.116.07-.162.115c0 0-.023 0 0-.023-.093.185-.441 0-.72-.115.186-.046.418 0 .58-.093.14-.092.326-.161.442-.3 0 .07 0 .139.023.231a.929.929 0 0 1-.14.162l-.023.023Zm7.548-2.216c-.232-.046-.51-.138-.743-.046-.14-.023-.186.046-.093.162.047.046.093.07.163.092.046.092.209.323.07.392-.28.07-.581-.092-.86-.046a.694.694 0 0 0-.441.3 2.483 2.483 0 0 1-.813-.207c.116 0 .232-.07.349-.185.07-.162.092-.346.208-.485.186-.184.535-.253.604-.53 0-.162-.232-.277-.185-.416.162-.277.603-.138.882-.207.093-.047.093-.208.21-.254.301.069.37-.116.487-.37.186-.069.371-.115.51.047.094.115.117.277 0 .392-.348.277-.835.3-1.137.646-.07.115.046.3.162.346.279.07.674.139.906-.069.232.092.697-.023.72.323-.325.046-.627.162-.975.115h-.024Zm27.127 33.601h.72c.255 0 .488.046.51.392 0 .184-.046.254-.208.37.162.091.186.138.186.391 0 .185 0 .254.093.3v.047h-.256s-.046-.139-.046-.185c0-.185.07-.462-.256-.462h-.534v.647h-.209v-1.5Zm.209.161v.508h.511c.14 0 .279-.046.302-.231.023-.254-.163-.277-.302-.277h-.511Z"/><path d="M80.935 40.57c-.72 0-1.3-.555-1.3-1.224 0-.67.58-1.223 1.3-1.223.72 0 1.3.554 1.3 1.223 0 .67-.58 1.223-1.3 1.223Zm0-2.17c-.58 0-1.045.438-1.045.97 0 .53.465.968 1.045.968.58 0 1.045-.438 1.045-.969 0-.53-.464-.969-1.045-.969Zm-1.229-1.477-.488-.139H1.766l-.093-.276C.907 34.385.093 31.36.093 29.169c0-1.892 0-3.83.744-6.023l.093-.277h79.589l.093.3c.557 1.592.766 3.37.766 6.139 0 1.453-.395 4.107-1.533 7.246l-.14.369ZM1.51 23.677c-.603 1.938-.603 3.738-.603 5.492 0 1.985.72 4.754 1.44 6.785h76.825c.998-2.908 1.37-5.331 1.37-6.67 0-2.515-.186-4.153-.65-5.607H1.487h.023Z"/><path d="M8.476 27.277v.115c-.209 0-.255.07-.255.231v3.785c0 1.177-1 1.707-2.555 1.707a4.17 4.17 0 0 1-1.417-.23c-.325-.116-.557-.208-.65-.208a.252.252 0 0 0-.163.07L3.32 32.7l.627-1.362.14.047v.115c0 .254.766.67 1.649.67.696 0 1.277-.208 1.277-.947V27.6c0-.185-.023-.23-.232-.23v-.116h1.718l-.023.023Zm.651 5.677c.186 0 .232-.07.232-.23v-5.078c0-.184-.023-.23-.232-.23V27.3h5.574c.209 0 .302-.07.302-.184h.116v1.315h-.116c0-.139-.093-.208-.302-.208h-4.134v1.408h2.694c.209 0 .302-.07.302-.208h.116v1.339h-.116c0-.139-.093-.185-.302-.185h-2.694v1.546h4.203c.21 0 .302-.07.302-.184h.116v1.292h-.116s-.093-.185-.302-.185H9.127v-.115.023Zm12.308-3.969-.14-.07V28.8c0-.092-.813-.669-2.206-.669s-1.904.392-1.904.877c0 1.292 5.063-.6 5.063 2.261 0 1.039-1.092 1.847-3.298 1.847-2.207 0-2.694-.623-2.903-.623-.047 0-.07.046-.116.069h-.116l.72-1.362.139.07v.115c0 .461 1.114.808 2.206.808 1.556 0 2.09-.416 2.09-.854 0-1.546-4.993.369-4.993-2.262 0-1.338 1.51-1.892 3.182-1.892 1.486 0 2.554.6 2.647.6.116 0 .14-.023.163-.046l.14.046-.651 1.2h-.023Zm2.601 1.938c0 .946.395 1.292 1.95 1.292 1.557 0 1.951-.346 1.951-1.292v-3.277c0-.184-.046-.23-.255-.23V27.3h1.719v.115c-.21 0-.233.07-.233.231v3.485c0 1.523-1.184 2.03-3.158 2.03s-3.159-.507-3.159-2.03v-3.485c0-.184-.023-.23-.232-.23V27.3h1.719v.115c-.21 0-.256.07-.256.231v3.277h-.046Zm11.287-1.938-.139-.07V28.8c0-.092-.813-.669-2.206-.669-1.394 0-1.905.392-1.905.877 0 1.292 5.063-.6 5.063 2.261 0 1.039-1.091 1.847-3.298 1.847-2.206 0-2.694-.623-2.903-.623-.046 0-.07.046-.116.069h-.116l.72-1.362.14.07v.115c0 .461 1.114.808 2.206.808 1.556 0 2.09-.416 2.09-.854 0-1.546-4.993.369-4.993-2.262 0-1.338 1.51-1.892 3.181-1.892 1.487 0 2.532.6 2.648.6.116 0 .14-.023.163-.046l.139.046-.65 1.2h-.024Zm5.434 3.738c0 .185.047.23.326.23v.116h-1.858v-.115c.278 0 .301-.07.301-.23v-5.078c0-.184-.023-.23-.301-.23V27.3h1.858v.115c-.28 0-.326.07-.326.231v5.077Zm6.342-3.738-.14-.07V28.8c0-.092-.813-.669-2.206-.669-1.394 0-1.928.392-1.928.877 0 1.292 5.063-.6 5.063 2.261 0 1.039-1.091 1.847-3.298 1.847-2.206 0-2.694-.623-2.903-.623-.046 0-.07.046-.116.069h-.116l.72-1.362.14.07v.115c0 .461 1.114.808 2.206.808 1.556 0 2.09-.416 2.09-.854 0-1.546-4.993.369-4.993-2.262 0-1.338 1.51-1.892 3.181-1.892 1.487 0 2.532.6 2.648.6.116 0 .14-.023.162-.046l.14.046-.65 1.2Zm3.831 3.969c.185 0 .232-.07.232-.23v-5.078c0-.184-.023-.23-.232-.23V27.3h1.695v.115c-.232 0-.255.07-.255.231v4.5h3.97c.21 0 .303-.069.303-.184h.116v1.292h-.116s-.093-.185-.302-.185H50.93v-.115Zm12.96-2.769c0 1.915-1.603 2.977-3.577 2.977s-3.577-1.039-3.577-2.977c0-1.939 1.603-2.977 3.577-2.977s3.576 1.038 3.576 2.977Zm-5.946 0c0 1.315 1.068 2.03 2.369 2.03 1.3 0 2.369-.715 2.369-2.03 0-1.316-1.045-2.031-2.37-2.031-1.323 0-2.368.715-2.368 2.03Zm7.826 2.538c0 .185.023.23.232.23v.116h-1.695v-.115c.209 0 .232-.07.232-.23v-5.078c0-.184-.023-.23-.232-.23V27.3h4.133c1.487 0 2.276.738 2.276 1.662 0 .923-.627 1.546-1.672 1.684l1.58 2.077c.116.162.185.23.371.23v.116h-1.904v-.115s.116-.023.116-.07c0-.069-.023-.092-.116-.207L67.51 30.6h-1.764v2.1l.023.023Zm.023-3.046h2.601c.627 0 1.115-.23 1.115-.715s-.488-.716-1.115-.716h-2.601V29.7v-.023Zm5.713-2.031c0-.184-.023-.23-.233-.23V27.3h3.81c2.182 0 3.111 1.154 3.111 2.885 0 1.915-1.161 2.884-2.926 2.884h-3.995v-.115c.21 0 .233-.07.233-.23v-5.078Zm1.23 4.5h2.532c1.068 0 1.695-.508 1.695-1.961 0-1.546-.859-1.962-1.997-1.962h-2.23v3.923ZM92.41 18.623c0-3.115 0-3.67-.047-4.315-.047-.67-.21-.993-.883-1.131-.162-.046-.51-.07-.696-.07-.093 0-.163-.045-.163-.115 0-.115.093-.161.325-.161.906 0 2.114.069 2.23.069.186 0 1.37-.07 1.974-.07.232 0 .325.047.325.162 0 .07-.093.116-.163.116-.139 0-.255 0-.51.069-.558.092-.72.438-.744 1.13-.046.647-.046 1.2-.046 4.316v1.2h.093c.348-.37 4.017-4.061 4.76-4.823.581-.577 1.092-1.108 1.092-1.43 0-.232-.093-.37-.255-.416-.093-.046-.186-.07-.186-.162s.093-.138.255-.138c.418 0 1.045.07 1.533.07.093 0 1.44-.07 1.951-.07.232 0 .302.046.302.138 0 .093-.047.139-.209.139-.302 0-.743.092-1.138.277-.836.369-1.277.854-2.206 1.707-.511.485-4.041 3.877-4.483 4.362.534.577 4.761 4.87 5.597 5.63 1.719 1.547 2.044 1.87 3.019 2.285a3.49 3.49 0 0 0 1.255.254c.139 0 .255.046.255.116 0 .092-.093.161-.441.161h-1.045c-.581 0-.952 0-1.394-.046-1.068-.092-1.579-.53-2.461-1.223-.906-.739-5.226-5.308-6.201-6.485h-.093v1.962c0 1.915 0 3.484.093 4.338.07.577.185 1.016.79 1.108a5.5 5.5 0 0 0 .789.07c.116 0 .163.068.163.115 0 .092-.093.161-.326.161-.998 0-2.183-.07-2.345-.07-.163 0-1.347.07-1.951.07-.232 0-.325-.046-.325-.161 0-.07.046-.116.162-.116.186 0 .418-.046.604-.069.418-.07.511-.53.58-1.108.094-.83.094-2.423.094-4.338v-3.508h.07Zm15.281 1.385c0-2.63 0-3.116-.046-3.646-.047-.577-.14-.854-.744-.946-.139 0-.441-.047-.603-.047-.07 0-.14-.069-.14-.138 0-.092.093-.139.279-.139.813 0 1.974.047 2.067.047h4.273c.348 0 .674-.07.813-.093.093 0 .162-.069.255-.069.07 0 .093.07.093.162 0 .115-.093.323-.139.807 0 .162-.07.923-.093 1.108 0 .07-.093.185-.163.185-.092 0-.139-.07-.139-.231 0-.116 0-.392-.093-.6-.116-.277-.302-.393-1.277-.53-.302-.047-2.369-.07-2.578-.07-.07 0-.093.07-.093.184v4.616c0 .115 0 .184.093.184.232 0 2.578 0 2.996-.046.418-.046.697-.069.882-.23.117-.116.209-.231.256-.231.046 0 .093.046.093.138 0 .093-.093.37-.14.946-.046.346-.092.97-.092 1.108 0 .139-.047.323-.163.323-.093 0-.116-.07-.116-.161 0-.162 0-.347-.07-.554-.069-.231-.232-.439-.906-.531-.487-.07-2.392-.07-2.717-.07-.093 0-.116.07-.116.116v4.292c.047 1.131.372 1.362 2.137 1.362.464 0 1.324 0 1.788-.185.464-.207.72-.507.813-1.177.046-.207.093-.253.186-.253s.116.138.116.253c0 .116-.14 1.27-.256 1.639-.116.438-.302.438-.998.438-1.347 0-2.369-.046-3.112-.069-.744-.046-1.231-.046-1.487-.046h-.766c-.348 0-.743.046-1.045.046-.186 0-.279-.046-.279-.138 0-.07.047-.139.139-.139.163 0 .395-.069.558-.069.348-.07.395-.392.464-.9.093-.692.093-2.03.093-3.67v-3l-.023.024Zm11.077 5.607c.047 1.408.209 1.824.697 1.939a5.1 5.1 0 0 0 .906.092c.093 0 .139.07.139.139 0 .092-.116.138-.325.138-1.022 0-1.719-.07-1.881-.07-.163 0-.906.07-1.719.07-.185 0-.278 0-.278-.138 0-.07.069-.139.139-.139.139 0 .464 0 .743-.092.441-.115.511-.577.511-2.123v-9.716c0-.669.093-.853.256-.853.209 0 .51.346.696.53.279.277 2.88 3 5.644 5.793 1.765 1.8 3.692 3.807 4.226 4.361l-.185-8.492c0-1.108-.116-1.477-.674-1.57-.325-.069-.743-.069-.882-.069-.116 0-.14-.092-.14-.161 0-.092.14-.115.349-.115.813 0 1.672.046 1.881.046.209 0 .789-.046 1.533-.046.185 0 .325 0 .325.115 0 .07-.093.161-.209.161-.07 0-.232 0-.418.047-.581.115-.627.461-.627 1.477l-.047 9.946c0 1.107 0 1.223-.139 1.223-.186 0-.372-.139-1.37-1.039-.186-.161-2.764-2.654-4.668-4.592-2.067-2.146-4.088-4.2-4.645-4.8l.209 8.008-.047-.07Zm16.211 0c.047 1.408.209 1.824.697 1.939a5.1 5.1 0 0 0 .906.092c.093 0 .139.07.139.139 0 .092-.116.138-.325.138-1.022 0-1.719-.07-1.881-.07-.163 0-.906.07-1.719.07-.186 0-.278 0-.278-.138 0-.07.069-.139.139-.139.139 0 .464 0 .743-.092.441-.115.511-.577.511-2.123v-9.716c0-.669.093-.853.255-.853.209 0 .511.346.697.53.279.277 2.88 3 5.644 5.793 1.765 1.8 3.692 3.807 4.226 4.361l-.185-8.492c0-1.108-.116-1.477-.674-1.57-.325-.069-.743-.069-.882-.069-.117 0-.14-.092-.14-.161 0-.092.14-.115.349-.115.812 0 1.672.046 1.881.046.209 0 .789-.046 1.533-.046.185 0 .325 0 .325.115 0 .07-.093.161-.209.161-.07 0-.233 0-.418.047-.581.115-.627.461-.627 1.477l-.047 9.946c0 1.107 0 1.223-.139 1.223-.186 0-.372-.139-1.37-1.039-.186-.161-2.764-2.654-4.668-4.592-2.067-2.146-4.088-4.2-4.645-4.8l.209 8.008-.047-.07Zm16.28-5.607c0-2.63 0-3.116-.046-3.646-.047-.577-.139-.854-.743-.946-.14 0-.442-.047-.604-.047a.149.149 0 0 1-.139-.138c0-.092.092-.139.278-.139.813 0 1.974.047 2.067.047h4.273c.349 0 .674-.07.813-.093.07 0 .163-.069.256-.069.069 0 .069.07.069.162 0 .115-.093.323-.139.807 0 .162-.07.923-.093 1.108 0 .07-.07.185-.162.185-.093 0-.14-.07-.14-.231 0-.116 0-.392-.093-.6-.116-.277-.302-.393-1.277-.53-.302-.047-2.369-.07-2.578-.07-.093 0-.093.07-.093.184v4.616c0 .115 0 .184.093.184.232 0 2.578 0 2.996-.046.418-.046.697-.069.883-.23.116-.116.209-.231.255-.231.046 0 .093.046.093.138 0 .093-.093.37-.139.946-.047.346-.07.97-.07 1.108 0 .139-.047.323-.163.323-.069 0-.116-.07-.116-.161 0-.162 0-.347-.093-.554-.069-.231-.232-.439-.905-.531-.488-.07-2.392-.07-2.694-.07-.093 0-.117.07-.117.116v4.292c.047 1.131.372 1.362 2.137 1.362.465 0 1.324 0 1.788-.185.465-.207.72-.507.813-1.177.047-.207.07-.253.186-.253.116 0 .116.138.116.253 0 .116-.139 1.27-.255 1.639-.116.438-.302.438-.999.438-1.347 0-2.369-.046-3.112-.069-.743-.046-1.231-.046-1.486-.046h-.767c-.348 0-.743.046-1.045.046-.186 0-.279-.046-.279-.138 0-.07.047-.139.14-.139.162 0 .395-.069.557-.069.349-.07.395-.392.465-.9.093-.692.093-2.03.093-3.67v-3l-.024.024Zm15.073 2.977c0 1.638 0 2.977.07 3.669.069.508.139.808.696.9.256.046.651.07.813.07.116 0 .14.068.14.138 0 .069-.093.138-.279.138-.976 0-2.114-.07-2.206-.07-.07 0-1.324.07-1.858.07-.209 0-.279-.046-.279-.138 0-.07.046-.116.139-.116.163 0 .372-.046.534-.069.372-.07.465-.415.535-.923.069-.692.069-2.03.069-3.67v-7.13l-2.578.046c-1.114 0-1.556.138-1.811.53-.209.3-.232.416-.279.532-.046.138-.093.161-.186.161-.046 0-.116-.046-.116-.138 0-.185.372-1.708.395-1.846.047-.093.116-.324.186-.324.116 0 .302.139.79.208.51.07 1.207.07 1.393.07h6.758c.581 0 .999-.047 1.278-.07.255-.046.418-.07.51-.07.093 0 .093.093.093.209 0 .53-.069 1.73-.069 1.938 0 .138-.07.23-.163.23s-.116-.068-.139-.3v-.184c-.07-.53-.465-.9-2.183-.946l-2.23-.046v7.13h-.023Zm19.624 0c0 1.638 0 2.977.093 3.669.07.508.093.808.65.9.256.046.651.07.79.07.116 0 .162.068.162.138 0 .069-.092.138-.301.138-.976 0-2.114-.07-2.207-.07-.069 0-1.231.07-1.765.07-.209 0-.278-.046-.278-.138 0-.07.046-.139.139-.139.162 0 .371-.046.534-.07.372-.068.418-.414.488-.922.069-.692.069-1.985.069-3.6v-1.708s-.046-.092-.092-.092h-7.455s-.093 0-.093.092v1.708c0 1.638 0 2.93.069 3.623.07.508.117.808.651.9.255.046.65.07.812.07.093 0 .14.068.14.138 0 .069-.093.138-.279.138-.998 0-2.136-.07-2.206-.07-.093 0-1.231.07-1.788.07-.186 0-.279-.046-.279-.138 0-.07.046-.139.139-.139.163 0 .395-.046.558-.07.348-.068.394-.391.464-.899.093-.692.093-2.03.093-3.67v-3c0-2.63 0-3.115-.046-3.645-.047-.577-.14-.854-.744-.947-.139 0-.441-.046-.603-.046-.07 0-.14-.069-.14-.138 0-.092.093-.139.279-.139.813 0 1.951.046 2.044.046.093 0 1.231-.046 1.765-.046.209 0 .278.046.278.139 0 .069-.093.138-.139.138-.116 0-.255 0-.441.046-.488.093-.581.347-.627.947V20.4s.046.091.093.091h7.455s.092 0 .092-.092v-.37c0-2.63 0-3.16-.046-3.691-.046-.577-.116-.854-.72-.947-.139 0-.441-.046-.604-.046-.069 0-.139-.069-.139-.138 0-.092.093-.139.279-.139.789 0 1.95.046 2.043.046.093 0 1.231-.046 1.765-.046.209 0 .302.046.302.139 0 .069-.093.138-.162.138-.116 0-.233 0-.442.046-.464.093-.58.347-.603.947-.047.53-.047 1.015-.047 3.646v3Zm14.121 3.069c-1.974-1.73-2.485-4.015-2.485-5.908 0-1.338.464-3.669 2.299-5.446 1.231-1.2 3.089-2.146 6.247-2.146.813 0 1.974.07 2.973.23.79.14 1.44.255 2.09.3.232 0 .256.093.256.232 0 .161-.07.392-.093 1.107-.047.67-.047 1.754-.07 2.054-.023.3-.07.415-.186.415-.139 0-.162-.138-.162-.415 0-.785-.326-1.592-.86-2.03-.72-.6-2.299-1.131-4.087-1.131-2.717 0-3.995.784-4.715 1.453-1.486 1.408-1.834 3.162-1.834 5.216 0 3.807 3.019 7.315 7.385 7.315 1.533 0 2.74-.184 3.553-.992.441-.439.697-1.316.767-1.685.046-.23.093-.3.209-.3.093 0 .139.139.139.3 0 .139-.255 1.87-.441 2.562-.116.369-.163.415-.534.577-.813.323-2.369.461-3.693.461-3.066 0-5.133-.738-6.758-2.146v-.023Zm20.971-11.192c4.064 0 7.13 2.423 7.13 6.369 0 3.946-2.88 6.923-7.223 6.923-4.924 0-7.037-3.623-7.037-6.67 0-2.722 2.16-6.622 7.153-6.622h-.023Zm.418 12.6c1.625 0 4.877-.831 4.877-5.747 0-4.061-2.532-6.207-5.388-6.207-3.019 0-5.179 1.846-5.179 5.538 0 3.946 2.438 6.416 5.69 6.416Zm10.172-7.454c0-2.63 0-3.116-.046-3.646-.047-.577-.14-.854-.743-.946-.14 0-.442-.046-.604-.046-.07 0-.14-.07-.14-.139 0-.092.093-.139.279-.139.813 0 1.951.047 2.09.047.395 0 1.742-.046 2.555-.046 2.322 0 3.135.692 3.437.969.418.369.906 1.107.906 2.03 0 2.447-1.881 4.062-4.645 4.062h-.511c-.093 0-.186-.07-.186-.162 0-.138.093-.184.465-.184 1.951 0 3.344-1.2 3.344-2.723 0-.554-.07-1.662-1.022-2.585s-2.02-.807-2.438-.807a5.69 5.69 0 0 0-.999.115c-.093 0-.139.138-.139.323v6.9c0 1.639 0 2.977.093 3.67.069.507.162.807.72.9.255.045.627.069.789.069.093 0 .14.069.14.138 0 .07-.093.138-.279.138-.976 0-2.16-.069-2.253-.069-.07 0-1.231.07-1.788.07-.186 0-.279-.047-.279-.14 0-.068.047-.137.14-.137.162 0 .394-.047.557-.07.348-.069.395-.392.464-.9.093-.692.093-2.03.093-3.669v-3.023Zm11.473 0c0-2.63 0-3.116-.047-3.646-.046-.577-.139-.854-.743-.946-.139 0-.441-.047-.604-.047-.069 0-.139-.069-.139-.138 0-.092.093-.139.279-.139.813 0 1.997.047 2.09.047h4.296c.349 0 .674-.07.813-.093.07 0 .163-.069.256-.069.069 0 .093.07.093.162 0 .115-.093.323-.14.807 0 .162-.069.923-.093 1.108 0 .07-.069.185-.162.185s-.14-.07-.14-.231c0-.116 0-.392-.092-.6-.117-.277-.302-.393-1.301-.53-.302-.047-2.392-.07-2.601-.07-.093 0-.093.07-.093.184v4.616c0 .115 0 .184.093.184.232 0 2.601 0 3.019-.046.441-.046.697-.069.883-.23.116-.116.209-.231.255-.231.047 0 .093.046.093.138 0 .093-.093.37-.139.946a13.7 13.7 0 0 0-.093 1.108c0 .139-.047.323-.163.323-.093 0-.116-.07-.116-.161 0-.162 0-.347-.093-.554-.07-.231-.232-.439-.929-.531-.488-.07-2.415-.07-2.717-.07-.093 0-.116.07-.116.116v4.292c.046 1.131.371 1.362 2.16 1.362.464 0 1.323 0 1.811-.185.465-.207.72-.507.813-1.177.046-.207.093-.253.186-.253s.116.138.116.253c0 .116-.139 1.27-.256 1.639-.116.438-.301.438-.998.438-1.347 0-2.392-.046-3.135-.069-.767-.046-1.231-.046-1.487-.046h-.789c-.349 0-.767.046-1.045.046-.186 0-.279-.046-.279-.138 0-.07.046-.139.139-.139.163 0 .395-.069.558-.069.348-.07.394-.392.464-.9.093-.692.093-2.03.093-3.67v-3 .024Zm12.006 3.022c0 2.493.046 3.509.372 3.809.278.277.975.392 2.392.392.952 0 1.741 0 2.16-.508.232-.254.371-.623.418-.969 0-.115.092-.23.185-.23s.116.068.116.253-.116 1.2-.255 1.685c-.116.392-.186.461-1.138.461-1.301 0-2.299 0-3.135-.069-.813 0-1.44-.046-1.974-.046h-.743c-.372 0-.767.046-1.046.046-.185 0-.278-.046-.278-.139 0-.069.046-.138.139-.138.163 0 .395-.046.558-.07.348-.068.394-.392.464-.9.093-.691.093-2.03.093-3.668v-3c0-2.631 0-3.116-.047-3.647-.046-.577-.139-.853-.743-.946-.139 0-.441-.046-.604-.046-.069 0-.139-.07-.139-.138 0-.093.093-.139.279-.139.813 0 1.951.046 2.044.046.092 0 1.439-.046 1.997-.046.186 0 .278.046.278.139 0 .069-.069.115-.139.115-.116 0-.395 0-.604.046-.534.092-.627.37-.673.97v6.668l.023.069Zm12.611-7.592c.232-.553.302-.669.441-.669.186 0 .256.231.441.623.326.716 3.205 7.731 4.32 10.293.65 1.523 1.138 1.73 1.533 1.846.255.07.534.092.72.092.093 0 .232.046.232.139 0 .092-.209.138-.418.138-.255 0-1.602 0-2.856-.046-.349 0-.627 0-.627-.116 0-.069.046-.069.116-.115.093-.046.278-.184.162-.461l-1.625-3.9s-.07-.093-.163-.093h-4.157s-.14.046-.186.139l-1.022 2.723c-.162.415-.255.83-.255 1.13 0 .347.302.462.604.462h.162c.139 0 .186.07.186.139 0 .092-.093.138-.256.138-.441 0-1.416-.07-1.625-.07-.186 0-1.092.07-1.812.07-.232 0-.348-.046-.348-.138 0-.07.093-.139.162-.139.117 0 .395 0 .535-.046.812-.092 1.161-.692 1.509-1.546l4.25-10.616-.023.024Zm1.997 7.062s.093-.046.07-.115l-1.788-4.639c-.093-.254-.209-.254-.302 0l-1.672 4.639s0 .115.069.115h3.646-.023Zm8.918 3.115c.046 1.408.209 1.824.697 1.939.325.07.743.092.905.092.093 0 .14.07.14.139 0 .092-.116.138-.325.138-1.022 0-1.742-.07-1.905-.07-.162 0-.929.07-1.742.07-.185 0-.278 0-.278-.138 0-.07.069-.139.139-.139.139 0 .465 0 .743-.092.442-.115.511-.577.511-2.123v-9.716c0-.669.093-.853.256-.853.209 0 .511.346.696.53.279.277 2.903 3 5.69 5.793 1.789 1.8 3.716 3.807 4.25 4.361l-.186-8.492c0-1.108-.116-1.477-.673-1.57-.325-.069-.743-.069-.883-.069-.116 0-.139-.092-.139-.161 0-.092.139-.115.348-.115.813 0 1.673.046 1.882.046.209 0 .789-.046 1.532-.046.186 0 .326 0 .326.115 0 .07-.093.161-.209.161-.093 0-.233 0-.442.047-.604.115-.627.461-.627 1.477l-.046 9.946c0 1.107 0 1.223-.14 1.223-.185 0-.371-.139-1.37-1.039-.186-.161-2.787-2.654-4.691-4.592-2.09-2.146-4.111-4.2-4.668-4.8l.209 8.008v-.07Zm15.118-5.607c0-2.63 0-3.116-.046-3.646-.047-.577-.139-.854-.743-.946-.14 0-.442-.047-.604-.047a.149.149 0 0 1-.139-.138c0-.092.092-.139.278-.139.813 0 1.997.047 2.09.047.209 0 1.347-.046 2.416-.046 1.811 0 5.109-.162 7.222 1.938.906.877 1.765 2.285 1.765 4.315a6.762 6.762 0 0 1-1.95 4.777c-.79.785-2.393 1.962-5.458 1.962-.79 0-1.742-.07-2.508-.093a26.178 26.178 0 0 0-1.463-.092h-.744c-.371 0-.789.046-1.091.046-.186 0-.279-.046-.279-.138 0-.07.047-.139.14-.139.162 0 .394-.046.557-.069.348-.07.395-.392.464-.9.093-.692.093-2.03.093-3.67v-3.022Zm1.649 1.846v3.692c0 .416.07 1.039.209 1.223.232.324.86.67 2.996.67 1.649 0 3.135-.531 4.227-1.547.952-.853 1.417-2.469 1.417-4.038 0-2.146-.953-3.53-1.696-4.246-1.695-1.685-3.692-1.893-5.829-1.893-.348 0-.929.07-1.092.116-.162.07-.232.138-.232.346v5.677ZM142.038 35.608l2.741 7.27 2.764-7.27h1.579v8.654h-1.092v-7.2h-.023l-2.717 7.2h-.976l-2.717-7.2h-.023v7.2h-1.092v-8.654h1.58-.024Zm15.887 0v8.654h-1.161v-8.654h1.161Zm8.499 0 4.575 7.015h.023v-7.015h1.092v8.654h-1.277l-4.552-6.946h-.024v6.946h-1.091v-8.654h1.254Zm14.284 0v8.654h-1.161v-8.654h1.161Zm11.587 1.177c-.395-.277-.882-.416-1.486-.416-.232 0-.488.023-.72.07a1.888 1.888 0 0 0-.627.254 1.208 1.208 0 0 0-.441.461c-.116.208-.163.415-.163.715 0 .277.07.485.232.647.163.161.372.3.627.415.256.115.558.184.906.254.348.069.674.138 1.022.23.348.07.673.185 1.022.278.325.115.627.253.906.438.255.184.464.415.627.692.162.277.232.646.232 1.062 0 .461-.093.854-.302 1.177-.209.323-.465.6-.79.807a3.487 3.487 0 0 1-1.091.439 5.391 5.391 0 0 1-1.208.138 5.48 5.48 0 0 1-1.393-.184 3.07 3.07 0 0 1-1.138-.554 2.882 2.882 0 0 1-.79-.946c-.209-.393-.279-.831-.279-1.362h1.092c0 .37.07.67.209.946.139.254.325.485.557.647.233.161.511.3.813.369.302.069.627.115.952.115.256 0 .535-.023.79-.07.255-.045.511-.138.72-.253.209-.115.372-.277.511-.485.139-.207.186-.461.186-.784 0-.3-.07-.531-.233-.716a1.832 1.832 0 0 0-.627-.461 4.192 4.192 0 0 0-.905-.277c-.326-.07-.674-.139-1.022-.23a8.358 8.358 0 0 1-1.022-.278 4.662 4.662 0 0 1-.906-.392 1.682 1.682 0 0 1-.627-.646c-.162-.254-.232-.6-.232-.992 0-.439.093-.808.279-1.131.185-.323.418-.577.72-.785.301-.208.627-.37 1.021-.461a4.868 4.868 0 0 1 1.162-.162c.441 0 .859.046 1.254.162.371.115.72.276.998.507.279.231.511.508.674.854.162.346.255.762.278 1.223h-1.091c-.07-.623-.302-1.061-.674-1.361l-.023.046Zm8.223-.208v-.97h6.967v.97h-2.903v7.685h-1.161v-7.685h-2.903Zm17.511-.969c.836 0 1.486.208 1.951.6.464.392.696.946.696 1.661 0 .531-.116.993-.348 1.385-.232.392-.627.67-1.161.808.255.069.464.161.604.277a1.6 1.6 0 0 1 .371.415c.093.162.163.323.209.53.047.185.07.393.093.6 0 .209.023.416.047.647 0 .208.023.438.069.646.047.208.07.416.14.6.069.185.162.37.278.508h-1.3s-.14-.208-.163-.37a3.468 3.468 0 0 1-.046-.507c0-.185 0-.392-.024-.6 0-.208-.023-.439-.069-.646a4.619 4.619 0 0 0-.116-.6 1.433 1.433 0 0 0-.233-.508 1.238 1.238 0 0 0-.418-.346c-.162-.092-.394-.139-.673-.139h-2.833v3.693h-1.162v-8.654h4.088Zm.232 3.923c.256-.046.465-.115.65-.23.186-.116.325-.278.442-.462.116-.208.162-.462.162-.762 0-.438-.116-.785-.371-1.061-.233-.277-.627-.416-1.185-.416h-2.88v3.023h2.416c.278 0 .534 0 .766-.069v-.023Zm10.705-3.923v8.654h-1.161v-8.654h1.161Zm13.563 0v.97h-4.854v2.745h4.529v.97h-4.529v3h4.877v.969h-6.038v-8.654h6.015Zm11.682 1.177c-.395-.277-.882-.416-1.486-.416-.232 0-.488.023-.72.07a1.888 1.888 0 0 0-.627.254 1.208 1.208 0 0 0-.441.461c-.116.208-.163.415-.163.715 0 .277.07.485.232.647.163.161.372.3.627.415.256.115.558.184.906.254.348.069.674.138 1.022.23.348.07.673.185 1.022.278.325.115.627.253.906.438.255.184.464.415.627.692.162.277.232.646.232 1.062 0 .461-.093.854-.302 1.177-.209.323-.465.6-.79.807a3.487 3.487 0 0 1-1.091.439 5.391 5.391 0 0 1-1.208.138 5.48 5.48 0 0 1-1.393-.184 3.07 3.07 0 0 1-1.138-.554 2.882 2.882 0 0 1-.79-.946c-.209-.393-.279-.831-.279-1.362h1.092c0 .37.07.67.209.946.139.254.325.485.557.647.233.161.511.3.813.369.302.069.627.115.952.115.256 0 .535-.023.79-.07.255-.045.511-.138.72-.253.209-.115.372-.277.511-.485.139-.207.186-.461.186-.784 0-.3-.07-.531-.233-.716a1.832 1.832 0 0 0-.627-.461 4.192 4.192 0 0 0-.905-.277c-.326-.07-.674-.139-1.022-.23a8.358 8.358 0 0 1-1.022-.278 4.662 4.662 0 0 1-.906-.392 1.682 1.682 0 0 1-.627-.646c-.162-.254-.232-.6-.232-.992 0-.439.093-.808.279-1.131.185-.323.418-.577.72-.785.301-.208.627-.37 1.021-.461a4.868 4.868 0 0 1 1.162-.162c.441 0 .859.046 1.254.162.371.115.72.276.998.507.279.231.511.508.674.854.162.346.255.762.278 1.223h-1.091c-.07-.623-.302-1.061-.674-1.361l-.023.046Z"/></g><defs><clipPath id="a"><path fill="#fff" d="M0 0h306v57H0z"/></clipPath></defs></svg>