<svg xmlns="http://www.w3.org/2000/svg" viewBox="0 0 12 19"><path fill="#6c757d" d="M5.77.18c-1.586 0-2.946.554-4.075 1.66C.566 2.95 0 4.28 0 5.836c0 1.414.3 2.851.902 4.312a29.377 29.377 0 0 0 1.98 4.028c.723 1.203 1.384 2.18 1.985 2.933l.903 1.168.902-1.132c.598-.778 1.262-1.766 1.98-2.97a29.668 29.668 0 0 0 1.985-3.991c.601-1.485.902-2.934.902-4.348 0-1.555-.566-2.887-1.695-3.996C8.714.734 7.355.18 5.77.18Zm0 9.05c-.961 0-1.778-.332-2.454-.992A3.243 3.243 0 0 1 2.31 5.836c0-.941.336-1.742 1.007-2.402.676-.66 1.493-.993 2.454-.993.96 0 1.777.332 2.453.993A3.243 3.243 0 0 1 9.23 5.836c0 .941-.335 1.742-1.007 2.402-.676.66-1.493.989-2.453.989Zm0 0"/></svg>