<svg xmlns="http://www.w3.org/2000/svg" viewBox="0 0 24 24">
   <g clip-path="url(#in)">
        <path
          d="M12 0c-1.656 0-3.219.313-4.688.938a12.195 12.195 0 0 0-3.796 2.578A12.195 12.195 0 0 0 .937 7.312 11.846 11.846 0 0 0 0 12c0 1.656.313 3.219.938 4.688a12.196 12.196 0 0 0 2.578 3.796 12.196 12.196 0 0 0 3.796 2.578c1.47.625 3.032.938 4.688.938 1.656 0 3.219-.313 4.688-.938a12.197 12.197 0 0 0 3.796-2.578 12.197 12.197 0 0 0 2.578-3.797C23.688 15.22 24 13.658 24 12c0-1.656-.313-3.219-.938-4.688a12.196 12.196 0 0 0-2.578-3.796A12.196 12.196 0 0 0 16.687.937 11.846 11.846 0 0 0 12 0Zm0 2.813h2.46c.392 0 .837.015 1.337.046.5.032.922.079 1.265.141a5.1 5.1 0 0 1 .985.281c.281.125.555.274.82.446.266.171.524.382.774.632s.46.508.632.774c.172.265.32.539.446.82a5.1 5.1 0 0 1 .281.984c.063.344.11.766.14 1.266.032.5.047.945.047 1.336V14.46c0 .392-.015.837-.046 1.337-.032.5-.078.922-.141 1.265a5.1 5.1 0 0 1-.281.985 5.977 5.977 0 0 1-.446.82 4.738 4.738 0 0 1-.632.774c-.25.25-.508.46-.774.632-.265.172-.539.32-.82.446a5.1 5.1 0 0 1-.985.281c-.343.063-.765.11-1.265.14-.5.032-.945.047-1.336.047H9.54c-.392 0-.837-.015-1.337-.046-.5-.032-.922-.078-1.265-.141a5.1 5.1 0 0 1-.985-.281 5.977 5.977 0 0 1-.82-.446 4.737 4.737 0 0 1-.774-.632c-.25-.25-.46-.508-.632-.774a5.98 5.98 0 0 1-.446-.82A5.1 5.1 0 0 1 3 17.062c-.063-.343-.11-.765-.14-1.265-.032-.5-.047-.945-.047-1.336V9.54c0-.392.015-.837.046-1.337.032-.5.079-.922.141-1.265a5.1 5.1 0 0 1 .281-.985 5.98 5.98 0 0 1 .446-.82c.171-.266.382-.524.632-.774s.508-.46.774-.632c.265-.172.539-.32.82-.446A5.1 5.1 0 0 1 6.937 3c.344-.063.766-.11 1.266-.14.5-.032.945-.047 1.336-.047H12Zm0 1.64c-1.219 0-2.023.008-2.414.024-.39.015-.82.023-1.29.023a7.13 7.13 0 0 0-1.1.14 4.613 4.613 0 0 0-.633.188A3.135 3.135 0 0 0 6 5.133c-.156.11-.313.242-.469.398-.156.157-.289.313-.398.469-.11.156-.211.344-.305.563a4.613 4.613 0 0 0-.187.632A7.13 7.13 0 0 0 4.5 8.297c0 .469-.008.898-.023 1.289-.016.39-.024 1.195-.024 2.414s.008 2.023.024 2.414c.015.39.023.82.023 1.29.031.468.078.835.14 1.1.063.266.126.477.188.634.094.218.195.406.305.562.11.156.242.313.398.469.157.156.313.289.469.398.156.11.344.211.563.305.156.062.367.125.632.187.266.063.633.11 1.102.141.469 0 .898.008 1.289.023.39.016 1.195.024 2.414.024s2.023-.008 2.414-.024c.39-.015.82-.023 1.29-.023a7.123 7.123 0 0 0 1.1-.14c.266-.063.477-.126.634-.188.218-.094.406-.195.562-.305.156-.11.313-.242.469-.398.156-.157.289-.313.398-.469.11-.156.211-.344.305-.563.062-.156.125-.367.187-.632.063-.266.11-.633.141-1.102 0-.469.008-.898.023-1.289.016-.39.024-1.195.024-2.414s-.008-2.023-.024-2.414a32.5 32.5 0 0 1-.023-1.29 7.124 7.124 0 0 0-.14-1.1 4.613 4.613 0 0 0-.188-.633A3.136 3.136 0 0 0 18.867 6a3.54 3.54 0 0 0-.398-.469A3.541 3.541 0 0 0 18 5.133a3.135 3.135 0 0 0-.563-.305 4.616 4.616 0 0 0-.632-.187 7.129 7.129 0 0 0-1.102-.141c-.469 0-.898-.008-1.289-.023A76.689 76.689 0 0 0 12 4.453ZM16.922 6c.281 0 .531.11.75.328.219.219.328.469.328.75 0 .313-.11.578-.328.797a1.033 1.033 0 0 1-.75.328c-.313 0-.578-.11-.797-.328a1.085 1.085 0 0 1-.328-.797c0-.281.11-.531.328-.75.219-.219.484-.328.797-.328ZM12 7.266c1.313 0 2.43.46 3.352 1.382.921.922 1.382 2.04 1.382 3.352 0 1.313-.46 2.43-1.382 3.352-.922.921-2.04 1.382-3.352 1.382-1.313 0-2.43-.46-3.352-1.382-.921-.922-1.382-2.04-1.382-3.352 0-1.313.46-2.43 1.382-3.352.922-.921 2.04-1.382 3.352-1.382Zm0 1.687c-.844 0-1.563.297-2.156.89A2.937 2.937 0 0 0 8.954 12c0 .844.296 1.563.89 2.156.594.594 1.312.89 2.156.89.844 0 1.563-.296 2.156-.89.594-.594.89-1.312.89-2.156 0-.844-.296-1.563-.89-2.156A2.937 2.937 0 0 0 12 8.954Z"
          fill="#fff"
        ></path>
      </g>
      <defs>
        <clipPath id="in">
          <path fill="#fff" transform="matrix(1 0 0 -1 0 24)" d="M0 0h24v24H0z"></path>
        </clipPath>
      </defs>
</svg>