<svg xmlns="http://www.w3.org/2000/svg" viewBox="0 0 24 24">
    <g clip-path="url(#ty)">
        <path
          d="M24 12c0 1.656-.313 3.219-.938 4.688a12.197 12.197 0 0 1-2.578 3.796 12.197 12.197 0 0 1-3.797 2.578A11.846 11.846 0 0 1 12 24c-1.656 0-3.219-.313-4.688-.938a12.196 12.196 0 0 1-3.796-2.578 12.196 12.196 0 0 1-2.579-3.797A11.846 11.846 0 0 1 0 12c0-1.656.313-3.219.938-4.688a12.195 12.195 0 0 1 2.578-3.796A12.195 12.195 0 0 1 7.312.937 11.846 11.846 0 0 1 12 0c1.656 0 3.219.313 4.688.938a12.196 12.196 0 0 1 3.796 2.578 12.196 12.196 0 0 1 2.578 3.796C23.688 8.783 24 10.345 24 12ZM4.078 14.39c0 .844.32 1.555.961 2.133.64.579 1.414.868 2.32.868h9.282c.906 0 1.68-.29 2.32-.868.64-.578.96-1.289.96-2.132V9.28c0-.844-.32-1.562-.96-2.156-.64-.594-1.414-.89-2.32-.89H7.359c-.906 0-1.68.296-2.32.89-.64.594-.96 1.313-.96 2.156v5.11Zm6.234-4.921v4.594l4.266-2.391-4.265-2.203Z"
          fill="#fff"
        ></path>
      </g>
      <defs>
        <clipPath id="ty">
          <path fill="#fff" transform="matrix(1 0 0 -1 0 24)" d="M0 0h24v24H0z"></path>
        </clipPath>
      </defs>
</svg>