<svg xmlns="http://www.w3.org/2000/svg" viewBox="0 0 24 24">
   <g clip-path="url(#pi)">
        <path
          d="M12 0c-1.656 0-3.219.313-4.688.938a12.195 12.195 0 0 0-3.796 2.578A12.195 12.195 0 0 0 .937 7.312 11.846 11.846 0 0 0 0 12c0 1.656.313 3.219.938 4.688a12.196 12.196 0 0 0 2.578 3.796 12.196 12.196 0 0 0 3.796 2.578c1.47.625 3.032.938 4.688.938 1.656 0 3.219-.313 4.688-.938a12.197 12.197 0 0 0 3.796-2.578 12.197 12.197 0 0 0 2.578-3.797C23.688 15.22 24 13.658 24 12c0-1.656-.313-3.219-.938-4.688a12.196 12.196 0 0 0-2.578-3.796A12.196 12.196 0 0 0 16.687.937 11.846 11.846 0 0 0 12 0Zm1.172 16.031c-.563-.031-1-.164-1.313-.398a14.243 14.243 0 0 0-1.078-.727 28.088 28.088 0 0 1-.937 3.469c-.375 1.094-.985 1.953-1.828 2.578-.25-1.875-.157-3.555.28-5.039a45.461 45.461 0 0 0 1.079-4.476c-.5-.844-.516-1.883-.047-3.118.469-1.234 1.25-1.633 2.344-1.195 1.344.531 1.437 1.758.281 3.68-1.156 1.922-.906 3.054.75 3.398 1.75.344 2.914-.672 3.492-3.047.578-2.375.336-4.11-.726-5.203-1.563-1.562-3.438-1.773-5.625-.633-2.188 1.14-3.11 2.836-2.766 5.086.094.563.305 1.008.633 1.336.328.328.273.883-.164 1.664-1-.219-1.68-.695-2.04-1.43-.359-.734-.507-1.632-.444-2.695.062-1.719.71-3.133 1.945-4.242 1.234-1.11 2.601-1.758 4.101-1.945 1.875-.188 3.579.148 5.11 1.008 1.531.859 2.422 2.164 2.672 3.914.28 2-.102 3.875-1.149 5.625s-2.57 2.546-4.57 2.39Z"
          fill="#fff"
        ></path>
      </g>
      <defs>
        <clipPath id="pi">
          <path fill="#fff" transform="matrix(1 0 0 -1 0 24)" d="M0 0h24v24H0z"></path>
        </clipPath>
      </defs>
</svg>