<svg xmlns="http://www.w3.org/2000/svg" viewBox="0 0 24 24">
  <g clip-path="url(#fb)">
    <path
      d="M12 0c1.656 0 3.219.313 4.688.938a12.196 12.196 0 0 1 3.796 2.578 12.196 12.196 0 0 1 2.578 3.796C23.688 8.783 24 10.345 24 12a11.99 11.99 0 0 1-.797 4.36 11.927 11.927 0 0 1-2.226 3.609 12.24 12.24 0 0 1-3.352 2.625 11.81 11.81 0 0 1-4.125 1.312V15h4.125L18 12h-4.5v-1.5c0-.406.148-.758.445-1.055A1.442 1.442 0 0 1 15 9h3V6h-3c-1.25 0-2.313.438-3.188 1.313-.874.875-1.312 1.937-1.312 3.187V12H8.25v3h2.25v8.906a11.811 11.811 0 0 1-4.125-1.312 12.239 12.239 0 0 1-3.352-2.625 11.928 11.928 0 0 1-2.226-3.61A11.99 11.99 0 0 1 0 12c0-1.656.313-3.219.938-4.688a12.195 12.195 0 0 1 2.578-3.796A12.195 12.195 0 0 1 7.312.937 11.846 11.846 0 0 1 12 0Z"
      fill="#fff"
    ></path>
  </g>
  <defs>
    <clipPath id="fb">
      <path fill="#fff" transform="matrix(1 0 0 -1 0 24)" d="M0 0h24v24H0z"></path>
    </clipPath>
  </defs>
</svg>