<svg xmlns="http://www.w3.org/2000/svg" viewBox="0 0 24 24">
   <g clip-path="url(#li)">
        <path
          d="M11.531.188a11.45 11.45 0 0 0-4.5.89A11.582 11.582 0 0 0 3.398 3.54a11.44 11.44 0 0 0-2.46 3.68 10.955 10.955 0 0 0-.938 4.5c0 1.562.313 3.047.938 4.453a11.44 11.44 0 0 0 2.46 3.68 11.582 11.582 0 0 0 3.633 2.46 11.45 11.45 0 0 0 4.5.891 11.45 11.45 0 0 0 4.5-.89 11.583 11.583 0 0 0 3.633-2.461 11.442 11.442 0 0 0 2.461-3.68c.625-1.406.938-2.89.938-4.453 0-1.594-.313-3.094-.938-4.5a11.441 11.441 0 0 0-2.46-3.68 11.583 11.583 0 0 0-3.634-2.46 11.449 11.449 0 0 0-4.5-.891ZM8.72 16.453H6.375v-7.5h2.344v7.5Zm-1.172-8.39c-.375 0-.672-.118-.89-.352a1.164 1.164 0 0 1-.329-.82c0-.344.11-.625.328-.844.219-.219.516-.328.89-.328.376 0 .673.11.891.328.22.219.329.5.329.844 0 .312-.11.586-.329.82-.218.234-.515.351-.89.351Zm9.703 8.39h-2.344v-4.125c0-.5-.094-.898-.281-1.195-.188-.297-.484-.445-.89-.445-.344 0-.61.093-.797.28-.188.188-.329.391-.422.61a.864.864 0 0 0-.07.258c-.016.11-.024.21-.024.305v4.312h-2.297v-5.11c0-.468-.008-.898-.023-1.288-.016-.39-.04-.758-.07-1.102h2.062l.094 1.078h.046c.157-.25.422-.515.797-.797.375-.28.875-.421 1.5-.421.781 0 1.43.257 1.946.773.515.516.773 1.336.773 2.46v4.407Z"
          fill="#fff"
        ></path>
      </g>
      <defs>
        <clipPath id="li">
          <path fill="#fff" transform="matrix(1 0 0 -1 0 24)" d="M0 0h24v24H0z"></path>
        </clipPath>
      </defs>
</svg>